<svg viewBox="0 0 56 56" xmlns="http://www.w3.org/2000/svg" version="1.1"><defs><radialGradient cx="103.9%" cy="-10.387%" fx="103.9%" fy="-10.387%" r="166.816%" id="a"><stop stop-color="#E84D70" offset="0%"/><stop stop-color="#A337F6" offset="53.089%"/><stop stop-color="#28A7ED" offset="100%"/></radialGradient></defs><g fill="none" fill-rule="evenodd"><circle fill="url(#a)" cx="28" cy="28" r="28"/><path d="M27.3168 21.5138l6.964999999999999 6.342-5.319999999999999 7.755999999999999L15.7164 40.599999999999994l6.279-5.739999999999999c1.0626.385 2.5633999999999997.036399999999999995 3.3754-.8315999999999999a2.7411999999999996 2.7411999999999996 0 0 0-.18059999999999998-3.9479999999999995c-1.1703999999999999-1.043-3.0786-1.043-4.1495999999999995.0952-.7979999999999999.8497999999999999-1.0737999999999999 2.3463999999999996-.616 3.3333999999999997L15.399999999999999 40.1982c.357-1.484.9562-3.8499999999999996 1.561-6.2104l.1918-.7434c.9212-3.5882 1.8017999999999998-6.9496 1.8017999999999998-6.9496l8.3622-4.781zM32.5598 16.799999999999997L39.199999999999996 23.0202l-3.6176 3.6483999999999996-6.845999999999999-6.4162L32.5598 16.799999999999997z" fill="#FFF" fill-rule="nonzero"/></g></svg>